<?xml version="1.0" encoding="UTF-8" standalone="no"?>
<!-- Created with Inkscape (http://www.inkscape.org/) -->

<svg
   width="218.26697mm"
   height="90.809502mm"
   viewBox="0 0 824.94602 343.21702"
   version="1.1"
   id="SVGRoot"
   sodipodi:docname="Heading.svg"
   inkscape:version="1.1.1 (3bf5ae0d25, 2021-09-20)"
   xmlns:inkscape="http://www.inkscape.org/namespaces/inkscape"
   xmlns:sodipodi="http://sodipodi.sourceforge.net/DTD/sodipodi-0.dtd"
   xmlns="http://www.w3.org/2000/svg"
   xmlns:svg="http://www.w3.org/2000/svg">
  <sodipodi:namedview
     id="namedview829"
     pagecolor="#ffffff"
     bordercolor="#666666"
     borderopacity="1.0"
     inkscape:pageshadow="2"
     inkscape:pageopacity="0.0"
     inkscape:pagecheckerboard="0"
     inkscape:document-units="px"
     showgrid="true"
     inkscape:zoom="0.64"
     inkscape:cx="46.09375"
     inkscape:cy="-258.59375"
     inkscape:window-width="1920"
     inkscape:window-height="1023"
     inkscape:window-x="-9"
     inkscape:window-y="19"
     inkscape:window-maximized="1"
     inkscape:current-layer="layer1"
     units="mm"
     fit-margin-top="0"
     fit-margin-left="0"
     fit-margin-right="0"
     fit-margin-bottom="0">
    <inkscape:grid
       type="xygrid"
       id="grid892"
       originx="-16970.654"
       originy="-10749.373" />
  </sodipodi:namedview>
  <defs
     id="defs824" />
  <g
     inkscape:label="Layer 1"
     inkscape:groupmode="layer"
     id="layer1"
     transform="translate(-16970.655,-10749.373)">
    <g
       id="g842">
      <path
         style="opacity:1;fill:#337aa2;fill-opacity:0.865714;stroke:none;stroke-width:1.052;stroke-opacity:1"
         id="path1020"
         d="m 16984.339,10792.599 c -1.075,-0.08 9.294,-6.576 6.909,-5.021 -2.124,1.384 -8.191,2.392 -6.37,4.156 1.991,1.929 5.111,-2.385 7.864,-2.708 10.772,-1.266 20.397,1.19 30.968,2.92 39.663,9.563 76.559,28.742 116.848,36.021 7.09,1.281 14.306,1.729 21.459,2.594 20.69,0.213 41.487,-2.6 60.676,-10.761 12.386,-5.267 35.616,-20.223 44.627,-27.02 4.605,-3.474 8.32,-7.993 12.481,-11.989 8.249,-10.075 10.067,-11.35 16.224,-22.223 1.68,-2.967 2.987,-6.13 4.48,-9.195 0,0 -12.612,5.728 -12.612,5.728 v 0 c -1.422,2.975 -2.652,6.049 -4.264,8.925 -5.904,10.53 -7.85,11.971 -15.811,21.697 -4.109,3.908 -8.246,7.786 -12.325,11.724 -1.624,1.568 -2.882,3.577 -4.783,4.794 -17.786,11.391 -36.798,17.736 -57.746,20.18 -6.906,0.805 -13.891,0.647 -20.836,0.97 -7.177,-0.792 -14.411,-1.167 -21.529,-2.375 -40.259,-6.832 -77.164,-25.59 -116.271,-36.505 -8.373,-1.581 -21.466,-4.729 -30.463,-4.116 -2.725,0.185 -5.364,1.242 -7.829,2.42 -8.576,4.097 -18.328,8.837 -25.381,15.719 0,0 13.684,-5.935 13.684,-5.935 z" />
      <path
         style="opacity:1;fill:#337aa2;fill-opacity:0.865714;stroke:none;stroke-width:1.052;stroke-opacity:1"
         id="path1022"
         d="m 17158.378,10836.696 c -4.657,29.617 -5.307,59.71 -6.348,89.623 -0.819,28.013 -1.173,56.026 -2.686,84.012 0,0 12.01,-6.051 12.01,-6.051 v 0 c 1.006,-27.866 1.098,-55.739 1.87,-83.612 1.2,-30.187 1.849,-60.797 8.526,-90.378 0,0 -13.372,6.406 -13.372,6.406 z" />
      <path
         style="opacity:1;fill:#337aa2;fill-opacity:0.865714;stroke:none;stroke-width:1.052;stroke-opacity:1"
         id="path1024"
         d="m 17066.751,11086.42 c 1.952,-3.892 5.398,-6.712 8.624,-9.514 1.9,-1.65 3.978,-3.098 5.785,-4.849 0.749,-0.725 -3.583,2.074 -2.59,1.754 4.247,-1.37 8.298,-3.289 12.447,-4.933 14.03,-3.47 17.269,-4.902 32.139,-5.859 22.345,-1.44 44.601,2.045 66.574,5.572 13.587,2.454 27.011,5.979 40.873,6.627 5.862,0.275 11.741,0.159 17.603,-0.09 5.781,-0.25 11.596,-0.443 17.3,-1.413 5.539,-0.942 10.865,-2.867 16.298,-4.301 17.092,-7.312 18.69,-7.089 36.548,-20.438 5.689,-4.253 10.429,-11.375 14.622,-17.015 0,0 -12.712,5.482 -12.712,5.482 v 0 c -21.58,28.812 12.139,-15.442 -14.37,16.448 -0.294,0.353 0.627,1.137 0.225,1.359 -4.475,2.47 -9.336,4.165 -14.004,6.247 -5.402,1.509 -10.686,3.532 -16.206,4.527 -5.679,1.023 -11.482,1.248 -17.247,1.503 -5.742,0.254 -11.504,0.317 -17.244,0.02 -13.834,-0.712 -27.263,-4.283 -40.861,-6.562 -22.106,-3.403 -44.549,-6.877 -67.001,-5.705 -14.737,0.769 -18.015,2.118 -31.954,5.302 -4.105,1.526 -8.398,2.62 -12.316,4.579 -14.8,7.4 -17.736,8.87 -27.172,17.177 -3.432,3.021 -6.878,6.123 -8.991,10.252 0,0 13.63,-6.167 13.63,-6.167 z" />
      <path
         style="opacity:1;fill:#337aa2;fill-opacity:0.865714;stroke:none;stroke-width:1.052;stroke-opacity:1"
         id="path1026"
         d="m 17204.755,10952.421 c 1.151,8.239 2.545,16.642 1.949,24.992 -0.137,1.909 -0.469,3.799 -0.704,5.699 -1.38,4.925 -2.525,10.091 -4.859,14.692 -0.342,0.676 -2.016,2.158 -1.328,1.843 13.308,-6.096 11.673,-2.715 13.798,-9.511 3.171,-10.46 8.969,-19.871 17.018,-27.284 1.57,-1.446 3.293,-2.714 4.939,-4.071 1.614,-1.066 6.573,-4.054 4.841,-3.196 -2.781,1.377 -5.535,2.875 -8,4.76 -1.178,0.9 2.64,-1.424 4.083,-1.765 5.51,-1.301 6.989,2.647 9.446,6.564 2.145,4.303 3.333,8.969 4.937,13.476 0.887,2.49 1.371,4.256 3.268,6.18 0.818,0.829 1.874,1.385 2.811,2.078 5.862,1.461 11.48,-0.234 17.176,-1.546 0,0 11.377,-8.68 11.377,-8.68 v 0 c -5.3,1.304 -10.62,2.922 -16.15,2.323 -0.85,-0.557 -1.807,-0.977 -2.549,-1.67 -1.777,-1.658 -2.339,-3.5 -3.18,-5.723 -1.729,-4.57 -2.967,-9.327 -5.174,-13.711 -1.578,-2.611 -3.335,-6.46 -6.371,-7.92 -2.781,-1.338 -6.016,0 -8.398,1.289 -14.174,7.64 -12.667,6.792 -21.385,12.907 -1.612,1.398 -3.303,2.71 -4.836,4.193 -8.05,7.791 -13.676,17.609 -17.145,28.21 -1.219,7.83 -1.78,5.414 13.062,-2.909 1.016,-0.57 3.851,-10.265 4.101,-11.163 0.53,-1.901 0.942,-3.832 1.413,-5.748 0.215,-1.945 0.529,-3.882 0.646,-5.835 0.511,-8.508 -0.904,-17.01 -1.673,-25.455 0,0 -13.113,6.981 -13.113,6.981 z" />
      <path
         style="opacity:1;fill:#337aa2;fill-opacity:0.865714;stroke:none;stroke-width:1.052;stroke-opacity:1"
         id="path1028"
         d="m 17322.007,10902.013 c -4.726,10.193 -6.954,21.142 -8.205,32.231 -1.317,14.092 -1.348,28.259 -1.881,42.393 -0.142,7.803 -1.295,15.507 -2.505,23.196 0,0 12.711,-6.237 12.711,-6.237 v 0 c 1.137,-7.741 2.267,-15.496 2.432,-23.336 0.562,-14.116 0.692,-28.265 2.03,-42.335 1.481,-11.071 3.719,-22.066 8.91,-32.076 0,0 -13.492,6.164 -13.492,6.164 z" />
      <path
         style="opacity:1;fill:#337aa2;fill-opacity:0.865714;stroke:none;stroke-width:1.052;stroke-opacity:1"
         id="path1030"
         d="m 17305.313,10966.617 c 8.464,-1.839 16.957,-3.537 25.468,-5.145 0,0 11.314,-8.543 11.314,-8.543 v 0 c -8.315,1.531 -16.595,3.233 -24.92,4.707 0,0 -11.862,8.981 -11.862,8.981 z" />
      <path
         style="opacity:1;fill:#337aa2;fill-opacity:0.865714;stroke:none;stroke-width:1.052;stroke-opacity:1"
         id="path1032"
         d="m 17359.792,10950.867 c -7.26,4.982 -14.546,10.486 -19.304,18.05 -0.799,1.27 -1.408,2.65 -2.111,3.976 -0.2,1.236 -0.568,2.456 -0.599,3.708 -0.163,6.393 5.863,10.337 10.409,13.678 4.798,2.693 10.714,5.148 16.365,3.8 1.344,-0.32 2.606,-0.971 3.776,-1.705 5.198,-3.262 10.192,-6.837 15.287,-10.256 4.947,-7.561 5.249,-16.27 4.583,-24.976 -0.17,-0.964 -0.694,-4.832 -1.429,-5.846 -3.272,-4.512 -9.672,-4.234 -14.48,-3.968 -1.4,0.277 -2.799,0.553 -4.198,0.829 0,0 -11.61,8.826 -11.61,8.826 v 0 c 1.364,-0.332 2.728,-0.665 4.092,-0.997 3.94,-0.426 7.461,-0.883 11.126,0.998 0.762,0.391 1.595,0.775 2.118,1.453 0.711,0.922 1.237,4.599 1.395,5.449 0.661,8.405 0.204,16.835 -5.09,23.828 3.193,-1.499 6.277,-3.259 9.58,-4.498 1.27,-0.477 -2.15,1.734 -3.427,2.19 -5.254,1.873 -11.138,-0.586 -15.708,-2.985 -4.053,-2.907 -9.994,-6.45 -9.595,-12.239 0.08,-1.104 0.463,-2.163 0.695,-3.244 0.704,-1.252 1.316,-2.561 2.112,-3.757 4.972,-7.468 12.42,-12.841 19.817,-17.681 0,0 -13.804,5.367 -13.804,5.367 z" />
      <path
         style="opacity:1;fill:#a23365;fill-opacity:0.811429;stroke:none;stroke-width:1.052;stroke-opacity:1"
         id="path21648"
         d="m 17428.636,10826.465 c 0.738,2.279 1.574,4.529 2.215,6.838 2.337,8.416 4.993,20.729 6.768,28.795 4.671,21.23 9.185,42.493 13.626,63.773 1.242,6.273 2.485,12.547 3.728,18.82 0,0 11.203,-5.999 11.203,-5.999 v 0 c -1.34,-6.223 -2.681,-12.446 -4.021,-18.669 -3.451,-16.184 -5.823,-27.089 -9.102,-43.377 -3.36,-16.685 -6.145,-33.499 -9.726,-50.138 -0.513,-2.385 -1.145,-4.743 -1.718,-7.115 0,0 -12.973,7.072 -12.973,7.072 z" />
      <path
         style="opacity:1;fill:#a23365;fill-opacity:0.811429;stroke:none;stroke-width:1.052;stroke-opacity:1"
         id="path21650"
         d="m 17410.454,10827.236 c 32.44,-10.746 67.351,-11.927 101.194,-9.587 10.316,0.714 20.549,2.347 30.823,3.52 15.938,4.595 30.378,6.384 43.058,17.939 3.629,3.308 6.715,7.721 7.765,12.517 4.009,18.306 -19.578,33.379 -30.667,42.438 -11.314,10.017 -25.693,15.402 -37.787,24.205 -3.399,2.474 -7.001,5.093 -9.093,8.739 -1.161,2.024 -1.61,5.374 0.07,6.998 3.754,3.642 9.238,4.984 14.148,6.788 7.415,2.725 15.144,4.506 22.717,6.759 23.099,7.385 48.114,10.863 69.271,23.535 7.248,4.341 18.191,12.09 17.98,22.501 -0.09,4.391 -3.462,8.073 -5.192,12.11 -4.949,3.825 -9.401,8.399 -14.846,11.476 -3.887,2.196 -8.463,2.853 -12.745,4.114 -9.811,2.89 -19.594,5.912 -29.53,8.338 -25.494,6.224 -51.429,9.791 -77.437,12.913 -21.014,0.706 -11.271,1.205 -29.254,-0.851 0,0 -11.015,7.828 -11.015,7.828 v 0 c 18.748,1.808 8.625,1.463 30.384,0.395 26.295,-3.452 52.526,-7.308 78.371,-13.407 9.787,-2.309 19.742,-4.234 29.137,-7.821 11.699,-4.466 23.06,-9.929 33.879,-16.235 5.653,-3.295 10.152,-8.257 15.228,-12.386 1.591,-4.356 4.906,-8.433 4.771,-13.069 -0.308,-10.633 -11.903,-18.431 -19.418,-22.748 -21.436,-12.313 -46.419,-15.756 -69.512,-23.553 -7.241,-2.401 -14.608,-4.453 -21.724,-7.204 -4.304,-1.664 -9.07,-2.894 -12.468,-6.015 -1.389,-1.276 -1.181,-4.021 -0.237,-5.654 1.916,-3.311 5.088,-5.794 8.171,-8.059 11.993,-8.811 26.253,-14.268 37.476,-24.265 11.656,-9.622 35.877,-25.217 30.744,-44.547 -1.312,-4.943 -4.807,-9.322 -8.699,-12.639 -13.289,-11.323 -28.088,-13.119 -44.409,-17.62 -10.363,-1.145 -20.691,-2.683 -31.09,-3.437 -32.735,-2.375 -66.599,-2.376 -98.356,6.892 0,0 -11.703,9.092 -11.703,9.092 z" />
      <path
         style="opacity:1;fill:#a23365;fill-opacity:0.811429;stroke:none;stroke-width:1.052;stroke-opacity:1"
         id="path21654"
         d="m 17658.974,10932.045 c -4.981,3.725 -9.178,8.65 -11.111,14.606 -0.101,3.17 0.84,6.864 4.338,7.833 0.928,0.257 1.912,0.224 2.868,0.336 9.435,-1.169 19.882,-5.602 25.226,-13.761 0.855,-1.305 1.859,-3.828 2.503,-5.353 0.282,-0.33 1.227,-1.196 0.846,-0.989 -4.3,2.332 -8.69,4.558 -12.67,7.401 -0.37,0.265 0.402,0.817 0.588,1.232 2.276,5.102 2.443,5.256 6.987,8.845 1.897,0.709 3.707,1.722 5.692,2.125 16.071,3.261 31.888,-6.436 44.467,-14.871 2.136,-1.433 3.664,-3.612 5.496,-5.418 3.261,-4.567 12.992,-16.78 8.518,-22.788 -0.678,-0.911 -1.796,-1.391 -2.695,-2.086 -1.359,-0.111 -2.733,-0.562 -4.078,-0.334 -1.502,0.254 -2.919,0.959 -4.227,1.742 -8.211,4.915 -17.967,8.873 -21.055,18.651 -0.445,1.408 -0.425,2.923 -0.638,4.385 0.315,1.316 0.347,2.735 0.946,3.95 2.603,5.285 9.245,6.353 13.836,8.984 6.181,3.542 8.522,5.984 13.909,10.592 6.661,7.298 15.846,17.02 15.029,27.861 -0.09,1.247 -0.633,2.418 -0.95,3.627 -0.871,0.856 -1.642,1.828 -2.614,2.568 -1,0.762 -4.312,2.588 -3.256,1.904 3.042,-1.969 6.492,-3.377 9.22,-5.763 0.83,-0.726 -2.158,0.523 -3.26,0.55 -3.324,0.08 -2.72,-0.185 -4.498,-2.572 -0.281,-1.222 -0.841,-2.413 -0.844,-3.667 -0.02,-9.515 9.552,-24.82 14.369,-32.809 7.673,-12.131 17.175,-22.918 26.537,-33.745 4.311,-4.73 8.331,-11.175 3.893,-17.307 -0.805,-1.112 -1.959,-1.923 -2.939,-2.884 -1.549,-0.541 -3.007,-1.585 -4.648,-1.623 -1.978,-0.05 -4.005,0.492 -5.774,1.379 -11.063,5.545 -16.719,7.138 -22.181,16.277 -3.378,5.653 -3.551,8.2 -5.147,14.458 -0.07,2.428 -0.479,4.872 -0.2,7.285 1.199,10.366 9.162,17.147 18.241,21.038 2.343,1.004 4.837,1.613 7.256,2.42 2.329,0.458 4.658,0.915 6.987,1.372 0,0 11.66,-8.152 11.66,-8.152 v 0 c -2.31,-0.395 -4.62,-0.79 -6.931,-1.185 -2.374,-0.741 -4.819,-1.285 -7.122,-2.224 -8.64,-3.524 -16.386,-9.809 -17.398,-19.681 -0.238,-2.315 0.198,-4.651 0.296,-6.976 1.654,-5.961 1.896,-8.651 5.415,-13.923 1.349,-2.021 6.635,-3.949 4.773,-5.512 -2.02,-1.695 -5.034,1.898 -7.038,3.611 -2.38,2.035 10.346,-6.048 9.35,-0.891 0.872,0.812 1.909,1.477 2.615,2.437 4.097,5.573 -0.839,11.551 -4.411,15.713 -9.197,10.863 -18.539,21.677 -26.071,33.803 -5.157,8.649 -14.708,23.696 -14.388,34.054 0.04,1.446 0.692,2.809 1.039,4.214 0.735,1.043 1.168,2.386 2.205,3.13 1.107,0.794 5.603,1.011 6.716,0.503 5.493,-2.507 10.679,-5.644 15.912,-8.657 1.114,-0.641 2.202,-1.372 3.102,-2.289 0.924,-0.943 1.536,-2.15 2.304,-3.224 0.218,-1.326 0.645,-2.634 0.656,-3.977 0.1,-11.45 -8.89,-20.733 -16.022,-28.547 -4.81,-4.165 -8.474,-7.684 -13.926,-11.03 -3.66,-2.247 -10.692,-3.778 -12.808,-8.081 -0.514,-1.044 -0.49,-2.276 -0.734,-3.414 0.821,-4.173 0.423,-4.225 2.958,-7.977 0.9,-1.331 4.66,-3.85 3.057,-3.729 -3.235,0.245 -5.769,3 -8.798,4.164 -1.357,0.521 2.383,-1.74 3.753,-2.226 1.104,-0.391 2.331,-0.23 3.496,-0.345 0.752,0.444 1.691,0.667 2.256,1.333 1.574,1.854 0.942,3.983 0.261,6.029 -1.854,5.57 -5.343,10.478 -9.008,14.97 -1.849,1.702 -5.1,2.633 -5.547,5.106 -0.34,1.883 6.993,-2.907 5.1,-2.632 -2.892,0.421 -5.399,2.273 -8.207,3.084 -7.414,2.142 -14.445,2.686 -21.601,-0.531 -3.314,-2.541 -3.482,-2.033 -5.251,-5.565 -0.455,-0.907 -0.692,-1.909 -1.071,-2.851 -0.27,-0.672 -0.186,-2.208 -0.875,-1.987 -12.681,4.069 -11.521,2.387 -14.32,7.849 -0.772,1.766 -1.331,3.287 -2.554,4.859 -0.727,0.934 -3.59,2.945 -2.476,2.546 3.357,-1.2 6.41,-3.151 9.437,-5.035 1.035,-0.644 -2.252,0.951 -3.422,1.292 -1.061,0.308 -2.166,0.432 -3.248,0.647 -4.662,0.07 -6.123,-0.938 -5.801,-5.815 2.251,-5.782 6.588,-10.257 11.51,-13.936 0,0 -13.81,5.597 -13.81,5.597 z" />
    </g>
  </g>
</svg>
