<?xml version="1.0" encoding="iso-8859-1"?>
<!-- Generator: Adobe Illustrator 17.1.0, SVG Export Plug-In . SVG Version: 6.00 Build 0)  -->
<!DOCTYPE svg PUBLIC "-//W3C//DTD SVG 1.1//EN" "http://www.w3.org/Graphics/SVG/1.1/DTD/svg11.dtd">
<svg version="1.1" id="Capa_1" xmlns="http://www.w3.org/2000/svg" xmlns:xlink="http://www.w3.org/1999/xlink" x="0px" y="0px"
	 viewBox="0 0 454.66 454.66" style="enable-background:new 0 0 454.66 454.66;" xml:space="preserve">
<g>
	<path d="M447.865,255.648c-5.233-1.773-10.908,1.033-12.679,6.265c-4.404,13.006-12.567,19.328-24.956,19.328
		c-12.029,0-23.091-8.8-27.525-21.897c-1.413-4.175-5.316-6.798-9.493-6.788c-0.041-0.001-0.081-0.002-0.122-0.003
		c-0.067,0.001-0.134,0.003-0.201,0.005c-4.162,0.007-8.045,2.624-9.454,6.786c-4.435,13.098-15.496,21.897-27.525,21.897
		c-11.034,0-21.237-7.416-26.276-18.748c6.082-11.587,10.024-24.093,11.467-36.163h85.518c5.523,0,10-4.478,10-10s-4.477-10-10-10
		h-85.39c-1.972-19.508-9.706-37.338-21.464-51.764l50.376-50.376c3.905-3.905,3.905-10.237,0-14.143
		c-3.905-3.904-10.237-3.904-14.143,0l-50.376,50.376c-14.486-11.806-32.403-19.552-52.004-21.485V33.33c0-5.522-4.477-10-10-10
		s-10,4.478-10,10v85.677c-19.341,2.041-37.016,9.745-51.337,21.417l-50.376-50.376c-3.905-3.904-10.237-3.904-14.143,0
		c-3.905,3.905-3.905,10.237,0,14.143l50.376,50.376c-11.758,14.427-19.491,32.256-21.463,51.764H41.618c-5.523,0-10,4.478-10,10
		s4.477,10,10,10h85.181c1.482,12.277,5.628,24.711,12.22,36.602c-5.105,11.084-15.184,18.309-26.074,18.309
		c-12.389,0-20.552-6.322-24.956-19.328c-1.771-5.231-7.447-8.039-12.679-6.265c-5.231,1.771-8.036,7.447-6.265,12.679
		c7.082,20.917,23.083,32.914,43.899,32.914c14.431,0,27.907-6.998,37.161-18.477c9.254,11.479,22.73,18.477,37.161,18.477
		c14.431,0,27.907-6.998,37.16-18.477c9.253,11.479,22.73,18.477,37.161,18.477c14.431,0,27.907-6.998,37.16-18.477
		c9.254,11.479,22.73,18.477,37.16,18.477c14.431,0,27.907-6.998,37.161-18.477c9.254,11.479,22.73,18.477,37.161,18.477
		c20.816,0,36.817-11.997,43.899-32.914C455.901,263.096,453.095,257.42,447.865,255.648z M261.588,281.241
		c-12.029,0-23.091-8.8-27.525-21.897c-1.414-4.175-5.317-6.798-9.494-6.788c-0.041-0.001-0.081-0.002-0.121-0.003
		c-0.067,0.001-0.134,0.003-0.201,0.005c-4.163,0.007-8.045,2.623-9.455,6.786c-4.435,13.098-15.496,21.897-27.525,21.897
		s-23.091-8.8-27.525-21.897c-0.187-0.553-0.427-1.072-0.696-1.568c-0.181-0.417-0.381-0.829-0.623-1.229
		c-8.125-13.379-12.246-26.941-12.246-40.31c0-42.886,34.89-77.776,77.776-77.776s77.776,34.891,77.776,77.776
		c0,12.125-3.643,25.563-10.258,37.838c-0.445,0.826-0.752,1.687-0.948,2.56c-0.591,0.806-1.071,1.712-1.409,2.709
		C284.678,272.441,273.617,281.241,261.588,281.241z"/>
	<path d="M379.35,320.737c-5.233-1.773-10.908,1.033-12.679,6.265c-4.404,13.006-12.567,19.328-24.956,19.328
		c-12.029,0-23.091-8.8-27.525-21.897c-1.412-4.172-5.309-6.793-9.482-6.788c-0.049-0.002-0.097-0.003-0.146-0.004
		c-0.058,0.001-0.117,0.002-0.175,0.004c-4.168,0.001-8.057,2.62-9.467,6.787c-4.435,13.098-15.496,21.897-27.525,21.897
		s-23.091-8.8-27.525-21.897c-1.412-4.172-5.309-6.792-9.482-6.788c-0.049-0.002-0.097-0.003-0.146-0.004
		c-0.059,0.001-0.117,0.002-0.176,0.004c-4.168,0.001-8.056,2.62-9.467,6.787c-4.435,13.098-15.496,21.897-27.525,21.897
		s-23.091-8.8-27.525-21.897c-1.412-4.172-5.308-6.792-9.481-6.788c-0.049-0.002-0.097-0.003-0.146-0.004
		c-0.059,0.001-0.117,0.002-0.176,0.004c-4.168,0.001-8.056,2.62-9.467,6.787c-4.435,13.098-15.496,21.897-27.525,21.897
		s-23.091-8.8-27.525-21.897c-1.412-4.171-5.309-6.792-9.481-6.788c-0.049-0.002-0.098-0.003-0.147-0.004
		c-0.059,0.001-0.118,0.002-0.177,0.004c-4.167,0.002-8.055,2.621-9.466,6.787C67.521,337.53,56.46,346.33,44.43,346.33
		c-12.389,0-20.552-6.322-24.956-19.328c-1.771-5.23-7.447-8.038-12.679-6.265c-5.231,1.771-8.036,7.447-6.265,12.679
		c7.082,20.917,23.083,32.914,43.899,32.914c14.431,0,27.907-6.998,37.16-18.477c9.253,11.479,22.73,18.477,37.161,18.477
		c14.431,0,27.907-6.998,37.16-18.477c9.254,11.479,22.73,18.477,37.16,18.477c14.431,0,27.907-6.999,37.161-18.477
		c9.254,11.479,22.73,18.477,37.161,18.477s27.907-6.999,37.161-18.477c9.254,11.479,22.73,18.477,37.161,18.477
		c20.816,0,36.817-11.997,43.899-32.914C387.386,328.185,384.581,322.509,379.35,320.737z"/>
	<path d="M337.35,385.737c-5.231-1.772-10.908,1.033-12.679,6.265c-4.404,13.006-12.567,19.328-24.956,19.328
		c-12.029,0-23.091-8.8-27.525-21.897c-1.411-4.168-5.303-6.789-9.473-6.787c-0.055-0.002-0.109-0.003-0.163-0.004
		c-0.053,0.001-0.105,0.002-0.158,0.004c-4.171-0.003-8.064,2.618-9.476,6.788c-4.435,13.098-15.496,21.897-27.525,21.897
		s-23.091-8.8-27.525-21.897c-1.411-4.168-5.303-6.789-9.474-6.787c-0.054-0.002-0.108-0.003-0.163-0.004
		c-0.052,0.001-0.105,0.002-0.157,0.004c-4.172-0.003-8.065,2.617-9.477,6.788c-4.435,13.098-15.496,21.897-27.525,21.897
		s-23.091-8.8-27.525-21.897c-1.771-5.23-7.448-8.038-12.679-6.265c-5.231,1.771-8.036,7.447-6.265,12.679
		c7.186,21.224,25.86,35.483,46.469,35.483c14.431,0,27.907-6.999,37.161-18.477c9.254,11.479,22.73,18.477,37.161,18.477
		s27.907-6.999,37.161-18.477c9.254,11.479,22.73,18.477,37.161,18.477c20.816,0,36.817-11.997,43.899-32.914
		C345.386,393.185,342.581,387.509,337.35,385.737z"/>
</g>
<g>
</g>
<g>
</g>
<g>
</g>
<g>
</g>
<g>
</g>
<g>
</g>
<g>
</g>
<g>
</g>
<g>
</g>
<g>
</g>
<g>
</g>
<g>
</g>
<g>
</g>
<g>
</g>
<g>
</g>
</svg>
